<mxfile host="app.diagrams.net" modified="2023-05-19T09:06:56.468Z" agent="Mozilla/5.0 (Macintosh; Intel Mac OS X 10_15_7) AppleWebKit/537.36 (KHTML, like Gecko) Chrome/113.0.0.0 Safari/537.36" etag="cmqh8cC0K4DEnTDD5Tpl" version="21.3.2" type="github">
  <diagram id="prtHgNgQTEPvFCAcTncT" name="Page-1">
    <mxGraphModel dx="1987" dy="1049" grid="1" gridSize="10" guides="1" tooltips="1" connect="1" arrows="1" fold="1" page="1" pageScale="1" pageWidth="827" pageHeight="1169" math="0" shadow="0">
      <root>
        <mxCell id="0" />
        <mxCell id="1" parent="0" />
        <mxCell id="dNxyNK7c78bLwvsdeMH5-19" value="Pool" style="swimlane;html=1;childLayout=stackLayout;resizeParent=1;resizeParentMax=0;horizontal=0;startSize=20;horizontalStack=0;" parent="1" vertex="1">
          <mxGeometry x="110" y="120" width="1660" height="600" as="geometry" />
        </mxCell>
        <mxCell id="dNxyNK7c78bLwvsdeMH5-20" value="用户侧" style="swimlane;html=1;startSize=20;horizontal=0;" parent="dNxyNK7c78bLwvsdeMH5-19" vertex="1">
          <mxGeometry x="20" width="1640" height="120" as="geometry" />
        </mxCell>
        <mxCell id="dNxyNK7c78bLwvsdeMH5-25" value="" style="edgeStyle=orthogonalEdgeStyle;rounded=0;orthogonalLoop=1;jettySize=auto;html=1;entryX=0;entryY=0.5;entryDx=0;entryDy=0;" parent="dNxyNK7c78bLwvsdeMH5-20" source="dNxyNK7c78bLwvsdeMH5-23" target="sp__su_tC7e2eRbSU-4b-3" edge="1">
          <mxGeometry relative="1" as="geometry">
            <mxPoint x="120" y="60" as="targetPoint" />
          </mxGeometry>
        </mxCell>
        <mxCell id="dNxyNK7c78bLwvsdeMH5-23" value="" style="ellipse;whiteSpace=wrap;html=1;" parent="dNxyNK7c78bLwvsdeMH5-20" vertex="1">
          <mxGeometry x="40" y="40" width="40" height="40" as="geometry" />
        </mxCell>
        <mxCell id="sp__su_tC7e2eRbSU-4b-7" style="edgeStyle=orthogonalEdgeStyle;rounded=0;orthogonalLoop=1;jettySize=auto;html=1;exitX=1;exitY=0.5;exitDx=0;exitDy=0;entryX=0;entryY=0.5;entryDx=0;entryDy=0;" edge="1" parent="dNxyNK7c78bLwvsdeMH5-20" source="sp__su_tC7e2eRbSU-4b-3" target="sp__su_tC7e2eRbSU-4b-6">
          <mxGeometry relative="1" as="geometry" />
        </mxCell>
        <mxCell id="sp__su_tC7e2eRbSU-4b-3" value="创建仪表盘" style="rounded=0;whiteSpace=wrap;html=1;" vertex="1" parent="dNxyNK7c78bLwvsdeMH5-20">
          <mxGeometry x="110" y="30" width="120" height="60" as="geometry" />
        </mxCell>
        <mxCell id="sp__su_tC7e2eRbSU-4b-6" value="订阅" style="rounded=0;whiteSpace=wrap;html=1;" vertex="1" parent="dNxyNK7c78bLwvsdeMH5-20">
          <mxGeometry x="284" y="30" width="120" height="60" as="geometry" />
        </mxCell>
        <mxCell id="sp__su_tC7e2eRbSU-4b-24" value="结束" style="rounded=1;whiteSpace=wrap;html=1;" vertex="1" parent="dNxyNK7c78bLwvsdeMH5-20">
          <mxGeometry x="1500" y="30" width="120" height="60" as="geometry" />
        </mxCell>
        <mxCell id="sp__su_tC7e2eRbSU-4b-1" value="Mysql" style="swimlane;html=1;startSize=20;horizontal=0;" vertex="1" parent="dNxyNK7c78bLwvsdeMH5-19">
          <mxGeometry x="20" y="120" width="1640" height="120" as="geometry" />
        </mxCell>
        <mxCell id="sp__su_tC7e2eRbSU-4b-8" value="存储订阅" style="rounded=0;whiteSpace=wrap;html=1;" vertex="1" parent="sp__su_tC7e2eRbSU-4b-1">
          <mxGeometry x="284" y="30" width="120" height="60" as="geometry" />
        </mxCell>
        <mxCell id="sp__su_tC7e2eRbSU-4b-2" value="redis" style="swimlane;html=1;startSize=20;horizontal=0;" vertex="1" parent="dNxyNK7c78bLwvsdeMH5-19">
          <mxGeometry x="20" y="240" width="1640" height="120" as="geometry" />
        </mxCell>
        <mxCell id="sp__su_tC7e2eRbSU-4b-13" value="订阅任务列表" style="rounded=0;whiteSpace=wrap;html=1;" vertex="1" parent="sp__su_tC7e2eRbSU-4b-2">
          <mxGeometry x="284" y="35" width="120" height="60" as="geometry" />
        </mxCell>
        <mxCell id="sp__su_tC7e2eRbSU-4b-14" style="edgeStyle=orthogonalEdgeStyle;rounded=0;orthogonalLoop=1;jettySize=auto;html=1;exitX=0.5;exitY=1;exitDx=0;exitDy=0;dashed=1;endArrow=none;endFill=0;" edge="1" parent="dNxyNK7c78bLwvsdeMH5-19" source="sp__su_tC7e2eRbSU-4b-13" target="sp__su_tC7e2eRbSU-4b-10">
          <mxGeometry relative="1" as="geometry" />
        </mxCell>
        <mxCell id="dNxyNK7c78bLwvsdeMH5-21" value="Node Server" style="swimlane;html=1;startSize=20;horizontal=0;" parent="dNxyNK7c78bLwvsdeMH5-19" vertex="1">
          <mxGeometry x="20" y="360" width="1640" height="120" as="geometry" />
        </mxCell>
        <mxCell id="sp__su_tC7e2eRbSU-4b-15" style="edgeStyle=orthogonalEdgeStyle;rounded=0;orthogonalLoop=1;jettySize=auto;html=1;exitX=1;exitY=0.5;exitDx=0;exitDy=0;entryX=0;entryY=0.5;entryDx=0;entryDy=0;" edge="1" parent="dNxyNK7c78bLwvsdeMH5-21" source="sp__su_tC7e2eRbSU-4b-10" target="sp__su_tC7e2eRbSU-4b-11">
          <mxGeometry relative="1" as="geometry" />
        </mxCell>
        <mxCell id="sp__su_tC7e2eRbSU-4b-10" value="轮询订阅任务" style="rounded=0;whiteSpace=wrap;html=1;" vertex="1" parent="dNxyNK7c78bLwvsdeMH5-21">
          <mxGeometry x="284" y="35" width="120" height="60" as="geometry" />
        </mxCell>
        <mxCell id="sp__su_tC7e2eRbSU-4b-17" style="edgeStyle=orthogonalEdgeStyle;rounded=0;orthogonalLoop=1;jettySize=auto;html=1;exitX=1;exitY=0.5;exitDx=0;exitDy=0;entryX=0;entryY=0.5;entryDx=0;entryDy=0;" edge="1" parent="dNxyNK7c78bLwvsdeMH5-21" source="sp__su_tC7e2eRbSU-4b-11" target="sp__su_tC7e2eRbSU-4b-16">
          <mxGeometry relative="1" as="geometry" />
        </mxCell>
        <mxCell id="sp__su_tC7e2eRbSU-4b-18" value="否" style="edgeLabel;html=1;align=center;verticalAlign=middle;resizable=0;points=[];" vertex="1" connectable="0" parent="sp__su_tC7e2eRbSU-4b-17">
          <mxGeometry x="-0.2667" y="-1" relative="1" as="geometry">
            <mxPoint as="offset" />
          </mxGeometry>
        </mxCell>
        <mxCell id="sp__su_tC7e2eRbSU-4b-23" style="edgeStyle=orthogonalEdgeStyle;rounded=0;orthogonalLoop=1;jettySize=auto;html=1;exitX=0.5;exitY=0;exitDx=0;exitDy=0;" edge="1" parent="dNxyNK7c78bLwvsdeMH5-21" source="sp__su_tC7e2eRbSU-4b-11" target="sp__su_tC7e2eRbSU-4b-22">
          <mxGeometry relative="1" as="geometry">
            <Array as="points">
              <mxPoint x="504" y="5" />
              <mxPoint x="1560" y="5" />
            </Array>
          </mxGeometry>
        </mxCell>
        <mxCell id="sp__su_tC7e2eRbSU-4b-11" value="任务存在" style="rhombus;whiteSpace=wrap;html=1;" vertex="1" parent="dNxyNK7c78bLwvsdeMH5-21">
          <mxGeometry x="464" y="25" width="80" height="80" as="geometry" />
        </mxCell>
        <mxCell id="sp__su_tC7e2eRbSU-4b-20" style="edgeStyle=orthogonalEdgeStyle;rounded=0;orthogonalLoop=1;jettySize=auto;html=1;exitX=1;exitY=0.5;exitDx=0;exitDy=0;" edge="1" parent="dNxyNK7c78bLwvsdeMH5-21" source="sp__su_tC7e2eRbSU-4b-16" target="sp__su_tC7e2eRbSU-4b-19">
          <mxGeometry relative="1" as="geometry" />
        </mxCell>
        <mxCell id="sp__su_tC7e2eRbSU-4b-16" value="添加定时任务" style="rounded=0;whiteSpace=wrap;html=1;" vertex="1" parent="dNxyNK7c78bLwvsdeMH5-21">
          <mxGeometry x="604" y="35" width="120" height="60" as="geometry" />
        </mxCell>
        <mxCell id="sp__su_tC7e2eRbSU-4b-28" style="edgeStyle=orthogonalEdgeStyle;rounded=0;orthogonalLoop=1;jettySize=auto;html=1;exitX=1;exitY=0.5;exitDx=0;exitDy=0;entryX=0;entryY=0.5;entryDx=0;entryDy=0;" edge="1" parent="dNxyNK7c78bLwvsdeMH5-21" source="sp__su_tC7e2eRbSU-4b-19" target="sp__su_tC7e2eRbSU-4b-26">
          <mxGeometry relative="1" as="geometry" />
        </mxCell>
        <mxCell id="sp__su_tC7e2eRbSU-4b-29" style="edgeStyle=orthogonalEdgeStyle;rounded=0;orthogonalLoop=1;jettySize=auto;html=1;exitX=1;exitY=0.5;exitDx=0;exitDy=0;entryX=0;entryY=0.5;entryDx=0;entryDy=0;" edge="1" parent="dNxyNK7c78bLwvsdeMH5-21" source="sp__su_tC7e2eRbSU-4b-19" target="sp__su_tC7e2eRbSU-4b-27">
          <mxGeometry relative="1" as="geometry" />
        </mxCell>
        <mxCell id="sp__su_tC7e2eRbSU-4b-19" value="执行定时任务" style="rounded=0;whiteSpace=wrap;html=1;" vertex="1" parent="dNxyNK7c78bLwvsdeMH5-21">
          <mxGeometry x="774" y="35" width="120" height="60" as="geometry" />
        </mxCell>
        <mxCell id="sp__su_tC7e2eRbSU-4b-22" value="结束" style="rounded=1;whiteSpace=wrap;html=1;" vertex="1" parent="dNxyNK7c78bLwvsdeMH5-21">
          <mxGeometry x="1500" y="35" width="120" height="60" as="geometry" />
        </mxCell>
        <mxCell id="sp__su_tC7e2eRbSU-4b-34" style="edgeStyle=orthogonalEdgeStyle;rounded=0;orthogonalLoop=1;jettySize=auto;html=1;exitX=1;exitY=0.5;exitDx=0;exitDy=0;" edge="1" parent="dNxyNK7c78bLwvsdeMH5-21" source="sp__su_tC7e2eRbSU-4b-26" target="sp__su_tC7e2eRbSU-4b-30">
          <mxGeometry relative="1" as="geometry" />
        </mxCell>
        <mxCell id="sp__su_tC7e2eRbSU-4b-26" value="截图" style="rounded=0;whiteSpace=wrap;html=1;" vertex="1" parent="dNxyNK7c78bLwvsdeMH5-21">
          <mxGeometry x="980" y="25" width="120" height="30" as="geometry" />
        </mxCell>
        <mxCell id="sp__su_tC7e2eRbSU-4b-36" style="edgeStyle=orthogonalEdgeStyle;rounded=0;orthogonalLoop=1;jettySize=auto;html=1;exitX=1;exitY=0.5;exitDx=0;exitDy=0;entryX=0;entryY=0.5;entryDx=0;entryDy=0;" edge="1" parent="dNxyNK7c78bLwvsdeMH5-21" source="sp__su_tC7e2eRbSU-4b-27" target="sp__su_tC7e2eRbSU-4b-35">
          <mxGeometry relative="1" as="geometry" />
        </mxCell>
        <mxCell id="sp__su_tC7e2eRbSU-4b-27" value="纯数据" style="rounded=0;whiteSpace=wrap;html=1;" vertex="1" parent="dNxyNK7c78bLwvsdeMH5-21">
          <mxGeometry x="980" y="74.5" width="120" height="30" as="geometry" />
        </mxCell>
        <mxCell id="sp__su_tC7e2eRbSU-4b-39" style="edgeStyle=orthogonalEdgeStyle;rounded=0;orthogonalLoop=1;jettySize=auto;html=1;exitX=1;exitY=0.5;exitDx=0;exitDy=0;entryX=0;entryY=0.5;entryDx=0;entryDy=0;" edge="1" parent="dNxyNK7c78bLwvsdeMH5-21" source="sp__su_tC7e2eRbSU-4b-30" target="sp__su_tC7e2eRbSU-4b-38">
          <mxGeometry relative="1" as="geometry" />
        </mxCell>
        <mxCell id="sp__su_tC7e2eRbSU-4b-30" value="puppeteer-core" style="rounded=0;whiteSpace=wrap;html=1;aspect=fixed;" vertex="1" parent="dNxyNK7c78bLwvsdeMH5-21">
          <mxGeometry x="1160" y="25" width="96" height="30" as="geometry" />
        </mxCell>
        <mxCell id="sp__su_tC7e2eRbSU-4b-41" style="edgeStyle=orthogonalEdgeStyle;rounded=0;orthogonalLoop=1;jettySize=auto;html=1;exitX=1;exitY=0.5;exitDx=0;exitDy=0;entryX=0;entryY=0.5;entryDx=0;entryDy=0;" edge="1" parent="dNxyNK7c78bLwvsdeMH5-21" source="sp__su_tC7e2eRbSU-4b-35" target="sp__su_tC7e2eRbSU-4b-38">
          <mxGeometry relative="1" as="geometry" />
        </mxCell>
        <mxCell id="sp__su_tC7e2eRbSU-4b-35" value="data-render" style="rounded=0;whiteSpace=wrap;html=1;aspect=fixed;" vertex="1" parent="dNxyNK7c78bLwvsdeMH5-21">
          <mxGeometry x="1160" y="74.5" width="96" height="30" as="geometry" />
        </mxCell>
        <mxCell id="sp__su_tC7e2eRbSU-4b-38" value="推送" style="rounded=0;whiteSpace=wrap;html=1;" vertex="1" parent="dNxyNK7c78bLwvsdeMH5-21">
          <mxGeometry x="1300" y="35" width="120" height="60" as="geometry" />
        </mxCell>
        <mxCell id="dNxyNK7c78bLwvsdeMH5-22" value="Notify" style="swimlane;html=1;startSize=20;horizontal=0;" parent="dNxyNK7c78bLwvsdeMH5-19" vertex="1">
          <mxGeometry x="20" y="480" width="1640" height="120" as="geometry" />
        </mxCell>
        <mxCell id="sp__su_tC7e2eRbSU-4b-42" value="通知" style="rounded=0;whiteSpace=wrap;html=1;" vertex="1" parent="dNxyNK7c78bLwvsdeMH5-22">
          <mxGeometry x="1300" y="30" width="120" height="60" as="geometry" />
        </mxCell>
        <mxCell id="sp__su_tC7e2eRbSU-4b-9" style="edgeStyle=orthogonalEdgeStyle;rounded=0;orthogonalLoop=1;jettySize=auto;html=1;exitX=0.5;exitY=1;exitDx=0;exitDy=0;entryX=0.5;entryY=0;entryDx=0;entryDy=0;" edge="1" parent="dNxyNK7c78bLwvsdeMH5-19" source="sp__su_tC7e2eRbSU-4b-6" target="sp__su_tC7e2eRbSU-4b-8">
          <mxGeometry relative="1" as="geometry" />
        </mxCell>
        <mxCell id="sp__su_tC7e2eRbSU-4b-21" style="edgeStyle=orthogonalEdgeStyle;rounded=0;orthogonalLoop=1;jettySize=auto;html=1;exitX=0.5;exitY=1;exitDx=0;exitDy=0;entryX=0.5;entryY=0;entryDx=0;entryDy=0;dashed=1;endArrow=none;endFill=0;" edge="1" parent="dNxyNK7c78bLwvsdeMH5-19" source="sp__su_tC7e2eRbSU-4b-8" target="sp__su_tC7e2eRbSU-4b-13">
          <mxGeometry relative="1" as="geometry" />
        </mxCell>
        <mxCell id="sp__su_tC7e2eRbSU-4b-25" style="edgeStyle=orthogonalEdgeStyle;rounded=0;orthogonalLoop=1;jettySize=auto;html=1;exitX=1;exitY=0.5;exitDx=0;exitDy=0;entryX=0.5;entryY=1;entryDx=0;entryDy=0;" edge="1" parent="dNxyNK7c78bLwvsdeMH5-19" source="sp__su_tC7e2eRbSU-4b-8" target="sp__su_tC7e2eRbSU-4b-24">
          <mxGeometry relative="1" as="geometry" />
        </mxCell>
        <mxCell id="sp__su_tC7e2eRbSU-4b-43" style="edgeStyle=orthogonalEdgeStyle;rounded=0;orthogonalLoop=1;jettySize=auto;html=1;exitX=0.5;exitY=1;exitDx=0;exitDy=0;entryX=0.5;entryY=0;entryDx=0;entryDy=0;" edge="1" parent="dNxyNK7c78bLwvsdeMH5-19" source="sp__su_tC7e2eRbSU-4b-38" target="sp__su_tC7e2eRbSU-4b-42">
          <mxGeometry relative="1" as="geometry" />
        </mxCell>
        <mxCell id="sp__su_tC7e2eRbSU-4b-44" style="edgeStyle=orthogonalEdgeStyle;rounded=0;orthogonalLoop=1;jettySize=auto;html=1;exitX=1;exitY=0.5;exitDx=0;exitDy=0;entryX=0.5;entryY=1;entryDx=0;entryDy=0;" edge="1" parent="dNxyNK7c78bLwvsdeMH5-19" source="sp__su_tC7e2eRbSU-4b-42" target="sp__su_tC7e2eRbSU-4b-22">
          <mxGeometry relative="1" as="geometry" />
        </mxCell>
      </root>
    </mxGraphModel>
  </diagram>
</mxfile>
